<svg width="170" height="170" viewBox="0 0 170 170" fill="none" xmlns="http://www.w3.org/2000/svg">
<path d="M58.573 101.757V101.287L59.56 100.911C60.218 100.66 60.6253 100.363 60.782 100.018C60.97 99.642 61.064 99.1407 61.064 98.514V73.98C61.064 73.3534 60.97 72.852 60.782 72.476C60.594 72.1 60.1867 71.8024 59.56 71.583L58.573 71.207V70.737H70.558V71.207L69.712 71.583C69.1167 71.8024 68.7093 72.1157 68.49 72.523C68.2707 72.899 68.161 73.4004 68.161 74.027V100.817H75.399C76.5583 100.817 77.4043 100.535 77.937 99.971C78.501 99.407 79.0337 98.5924 79.535 97.527L81.368 93.579H81.838L81.415 101.757H58.573ZM84.3822 101.757V101.287L85.9332 100.817C86.4972 100.66 86.9046 100.363 87.1552 99.924C87.4059 99.454 87.5312 98.9057 87.5312 98.279V75.672C87.1866 74.92 86.9046 74.356 86.6852 73.98C86.4972 73.604 86.2779 73.2907 86.0272 73.04C85.7766 72.758 85.4319 72.4134 84.9932 72.006L84.1942 71.207V70.737H92.5132L108.117 92.028V74.309C108.117 73.6824 108.008 73.1184 107.788 72.617C107.6 72.1157 107.193 71.7867 106.566 71.63L105.015 71.207V70.737H111.736V71.207L110.467 71.63C109.903 71.818 109.559 72.147 109.433 72.617C109.308 73.087 109.245 73.6354 109.245 74.262V101.898H106.613L88.6592 77.223V98.279C88.6592 98.9057 88.7532 99.4384 88.9412 99.877C89.1292 100.316 89.5209 100.629 90.1162 100.817L91.5262 101.287V101.757H84.3822Z" fill="#1A1818"/>
<path d="M33.2353 32.1868L29.1004 36.6648L20.9014 29.0901L21.81 28.1048L29.1208 34.8582L32.3458 31.366L33.2353 32.1868Z" fill="#1A1818"/>
<path d="M40.9078 24.424C40.9319 24.8794 40.832 25.3329 40.6189 25.7361C40.4058 26.1394 40.0874 26.4773 39.6976 26.7141C39.4314 26.9364 39.124 27.104 38.793 27.2073C38.4619 27.3106 38.1138 27.3476 37.7684 27.3162C37.4439 27.2797 37.1306 27.1757 36.8487 27.0108C36.5668 26.8459 36.3225 26.6238 36.1317 26.3588C35.8965 26.0795 35.735 25.7458 35.6618 25.3881C35.5887 25.0304 35.6062 24.6601 35.7129 24.3109C36.0093 23.4747 36.5642 22.7546 37.2973 22.2549L38.5026 21.3263L38.2419 20.984C37.946 20.5321 37.4934 20.2055 36.9713 20.0671C36.699 20.0405 36.4241 20.0726 36.1652 20.1613C35.9063 20.2499 35.6694 20.3931 35.4705 20.581C34.7881 21.0868 34.2786 21.791 34.0117 22.5974L33.2148 21.5638C33.5602 20.7694 34.119 20.0862 34.8292 19.5902C36.504 18.3063 37.9941 18.5127 39.2993 20.2093L42.5364 24.4265L41.5083 25.2115L40.9078 24.424ZM39.3342 25.6123C39.5474 25.4655 39.7297 25.2782 39.8705 25.0611C40.0113 24.8439 40.108 24.6011 40.155 24.3466C40.1928 24.1097 40.1802 23.8676 40.1181 23.636C40.0559 23.4043 39.9456 23.1884 39.7944 23.0022L39.1358 22.1501L37.9801 23.0455C37.5087 23.3525 37.1534 23.8081 36.9704 24.3401C36.9114 24.535 36.9003 24.7412 36.9381 24.9412C36.9758 25.1413 37.0612 25.3293 37.187 25.4893C37.2962 25.6441 37.4374 25.7735 37.601 25.8688C37.7647 25.9642 37.9469 26.0232 38.1353 26.0419C38.5754 26.0584 39.0048 25.9045 39.3342 25.6123Z" fill="#1A1818"/>
<path d="M54.0181 17.7515L52.8535 18.356L52.1811 17.0626C52.2245 17.6109 52.0909 18.1587 51.8001 18.6256C51.5094 19.0925 51.0766 19.4539 50.5654 19.6568C50.2556 19.8417 49.9107 19.9598 49.5526 20.0035C49.1946 20.0473 48.8313 20.0158 48.4862 19.9109C48.145 19.7906 47.8314 19.603 47.5641 19.3591C47.2969 19.1153 47.0813 18.8202 46.9303 18.4914L44.2622 13.3666L45.4201 12.7646L47.937 17.5937C48.1409 18.0572 48.5193 18.4216 48.9901 18.6078C49.2105 18.6784 49.4434 18.7015 49.6734 18.6756C49.9034 18.6497 50.1253 18.5755 50.3246 18.4577C50.6098 18.324 50.8607 18.1269 51.0581 17.8815C51.2556 17.636 51.3943 17.3487 51.4638 17.0415C51.5973 16.3428 51.4718 15.6195 51.1107 15.0066L48.9757 10.9083L50.1345 10.3045L54.0181 17.7515Z" fill="#1A1818"/>
<path d="M61.6963 14.7469L60.4576 15.1624L57.8035 7.19412L59.028 6.78531L59.4952 8.18269C59.5015 7.6853 59.6673 7.20307 59.9684 6.80709C60.2695 6.41111 60.6898 6.12233 61.1674 5.98331C61.313 5.93021 61.4634 5.89134 61.6165 5.86725L62.0293 7.09029C61.7861 7.09086 61.5446 7.12977 61.3135 7.20559C61.038 7.30078 60.791 7.46388 60.5952 7.67981C60.3995 7.89574 60.2613 8.15753 60.1935 8.44099C59.9966 9.08146 60.0123 9.76843 60.238 10.3993L61.6963 14.7469Z" fill="#1A1818"/>
<path d="M75.9166 10.9444C75.2469 11.4261 74.4697 11.7372 73.6526 11.8505C73.1002 11.9703 72.5293 11.9764 71.9745 11.8685C71.4197 11.7606 70.8926 11.541 70.4255 11.2229C69.9677 10.8863 69.5834 10.4598 69.2962 9.96955C69.0089 9.47931 68.8247 8.9356 68.7549 8.37171C68.4962 7.25118 68.6728 6.07426 69.2487 5.07891C69.5146 4.64955 69.8718 4.28398 70.2948 4.00814C70.7179 3.73231 71.1965 3.55298 71.6966 3.48289C72.1506 3.38347 72.6207 3.38325 73.0748 3.48226C73.5289 3.58128 73.9563 3.77718 74.3277 4.05657C75.1193 4.734 75.6216 5.68875 75.7315 6.72487C75.7893 7.04775 75.8175 7.37521 75.816 7.70322L70.1652 8.67184C70.3396 9.38672 70.7908 10.0031 71.4195 10.3855C72.082 10.7424 72.8508 10.8491 73.5854 10.686C74.3732 10.5917 75.1138 10.2608 75.7096 9.73678L75.9166 10.9444ZM71.8871 4.61C71.5906 4.65562 71.307 4.7629 71.0545 4.92492C70.802 5.08693 70.5863 5.30009 70.4212 5.55063C70.0421 6.15869 69.8868 6.87993 69.9822 7.59015L74.4191 6.83007L74.3646 6.50676C74.2934 5.90333 73.9947 5.34977 73.5296 4.95882C73.2975 4.7851 73.0303 4.66393 72.7467 4.6037C72.4631 4.54347 72.1698 4.54562 71.8871 4.61Z" fill="#1A1818"/>
<path d="M89.5646 10.8395L88.2576 10.8291L88.3047 5.39932C88.3458 4.88343 88.1806 4.37231 87.8453 3.97802C87.6864 3.81396 87.4951 3.68477 87.2836 3.59867C87.072 3.51256 86.8449 3.47142 86.6166 3.47786C86.3087 3.47416 86.0035 3.53589 85.7213 3.65898C85.4391 3.78207 85.1862 3.96371 84.9795 4.19188C84.4898 4.74601 84.2363 5.4697 84.2731 6.20828L84.2324 10.7937L82.9396 10.7834L83.014 2.38716L84.3068 2.39747L84.2906 3.8519C84.522 3.35105 84.9025 2.9339 85.3799 2.65747C85.8574 2.38105 86.4086 2.25885 86.9582 2.30758C87.3172 2.29213 87.6756 2.35171 88.0103 2.48253C88.345 2.61335 88.6488 2.81253 88.9022 3.06736C89.1492 3.3339 89.3399 3.64741 89.4632 3.98922C89.5864 4.33103 89.6396 4.69414 89.6196 5.05694L89.5646 10.8395Z" fill="#1A1818"/>
<path d="M102.082 12.3049C101.436 12.5295 100.74 12.5705 100.072 12.4234C99.4907 12.3434 98.9336 12.1396 98.438 11.8259C97.9425 11.5123 97.52 11.0959 97.1991 10.605C96.5898 9.63851 96.3814 8.4726 96.6181 7.35495C96.8026 6.23256 97.4122 5.22432 98.3205 4.5396C98.7975 4.18511 99.3464 3.93954 99.9286 3.82021C100.511 3.70088 101.112 3.71068 101.69 3.84894C102.351 3.9579 102.973 4.23536 103.496 4.65455L103.268 5.87229C102.811 5.4329 102.23 5.14429 101.603 5.04537C101.191 4.94905 100.763 4.94282 100.348 5.02712C99.9326 5.11142 99.5407 5.28426 99.1985 5.53385C98.5235 6.03832 98.0731 6.78741 97.9443 7.62025C97.7793 8.43301 97.9235 9.27807 98.3486 9.99016C98.5821 10.3476 98.8906 10.6499 99.2528 10.876C99.6151 11.1021 100.022 11.2465 100.446 11.2992C101.074 11.4162 101.722 11.3433 102.309 11.0899L102.082 12.3049Z" fill="#1A1818"/>
<path d="M114.184 16.0446C113.363 16.1263 112.535 16.0072 111.771 15.6975C111.233 15.5251 110.735 15.2444 110.309 14.8728C109.882 14.5012 109.537 14.0464 109.292 13.5364C109.064 13.0171 108.944 12.4566 108.939 11.8893C108.935 11.3219 109.047 10.7597 109.268 10.2372C109.606 9.13795 110.346 8.20666 111.34 7.62961C111.786 7.39125 112.279 7.25352 112.783 7.22613C113.288 7.19874 113.792 7.28235 114.261 7.47107C114.705 7.61204 115.113 7.84708 115.458 8.16016C115.803 8.47323 116.076 8.85697 116.259 9.2852C116.605 10.2682 116.56 11.3466 116.133 12.2973C116.024 12.6051 115.886 12.9016 115.72 13.1827L110.339 11.1966C110.133 11.9044 110.215 12.6648 110.566 13.3128C110.963 13.9525 111.576 14.4289 112.293 14.6556C113.023 14.9705 113.831 15.054 114.609 14.8948L114.184 16.0446ZM113.867 8.54393C113.586 8.43656 113.287 8.38812 112.987 8.40163C112.687 8.41514 112.393 8.4903 112.123 8.62243C111.491 8.96311 110.995 9.51132 110.72 10.1747L114.943 11.7357L115.058 11.4243C115.296 10.8656 115.313 10.2372 115.105 9.66656C114.992 9.40138 114.822 9.16382 114.609 8.97008C114.395 8.77634 114.142 8.63098 113.867 8.54393V8.54393Z" fill="#1A1818"/>
<path d="M128.901 24.7158L127.849 23.8945L134.705 15.0866L136.039 16.1279L135.356 21.5581L134.623 27.114C135.246 26.2419 136.215 24.9603 137.531 23.2694L140.433 19.5471L141.491 20.3717L134.629 29.1744L133.295 28.1398L133.955 22.7354C134.089 21.6499 134.217 20.6394 134.337 19.7136C134.458 18.7878 134.556 18.1163 134.609 17.71L134.706 17.1338C134.043 18.0705 133.072 19.3634 131.794 21.0125L128.901 24.7158Z" fill="#1A1818"/>
<path d="M143.947 38.4021C143.186 38.0823 142.516 37.5801 141.995 36.9397C141.606 36.5291 141.306 36.0437 141.111 35.5131C140.917 34.9825 140.833 34.4179 140.864 33.8537C140.914 33.2876 141.079 32.7377 141.349 32.2375C141.618 31.7373 141.987 31.2972 142.432 30.944C143.258 30.1437 144.356 29.6849 145.506 29.6597C146.012 29.6652 146.51 29.7817 146.965 30.0009C147.421 30.2202 147.822 30.5368 148.142 30.9285C148.463 31.265 148.708 31.6672 148.859 32.1073C149.01 32.5474 149.064 33.015 149.016 33.4779C148.844 34.5037 148.288 35.4254 147.46 36.0558C147.213 36.272 146.946 36.4657 146.664 36.6345L142.914 32.3016C142.393 32.8226 142.098 33.5279 142.093 34.2648C142.132 35.0181 142.44 35.7325 142.961 36.278C143.451 36.901 144.118 37.3612 144.874 37.5983L143.947 38.4021ZM147.277 31.6791C147.084 31.4479 146.845 31.2597 146.575 31.127C146.305 30.9942 146.01 30.9198 145.709 30.9086C144.992 30.8973 144.294 31.1384 143.737 31.5897L146.689 34.991L146.939 34.7766C147.419 34.4044 147.737 33.862 147.829 33.2616C147.857 32.9736 147.822 32.6828 147.726 32.4096C147.631 32.1364 147.477 31.8873 147.275 31.6796L147.277 31.6791Z" fill="#1A1818"/>
<path d="M149.442 47.1763L148.657 45.7728L154.732 39.429L155.411 40.6447L153.374 42.7096C152.663 43.434 152.042 44.0545 151.509 44.5805C150.976 45.1064 150.608 45.4359 150.423 45.6056L150.161 45.8454C150.857 45.6468 152.321 45.2926 154.552 44.7827L157.353 44.13L158.034 45.3435L156.012 47.3976L152.799 50.613C153.446 50.4322 154.926 50.0926 157.24 49.5943L160.062 48.9848L160.721 50.1581L152.095 51.9332L151.315 50.531L153.325 48.5013L156.422 45.447C155.725 45.648 154.324 46.0009 152.219 46.5058L149.442 47.1763Z" fill="#1A1818"/>
<path d="M158.616 70.5898L158.264 69.3293L163.493 67.8649C164.716 67.5216 165.184 66.8345 164.896 65.8035C164.816 65.5394 164.678 65.2967 164.491 65.0935C164.304 64.8904 164.074 64.7319 163.818 64.63C163.141 64.3487 162.384 64.3278 161.692 64.5713L157.277 65.8037L156.922 64.5415L162.157 63.0831C163.378 62.7388 163.851 62.0535 163.559 61.0218C163.478 60.7577 163.338 60.515 163.152 60.3111C162.965 60.1071 162.736 59.9469 162.48 59.842C161.804 59.5623 161.048 59.5418 160.357 59.7845L155.937 61.0193L155.588 59.7784L163.676 57.5133L164.024 58.7569L162.712 59.1248C163.207 59.1876 163.672 59.4023 164.04 59.7392C164.409 60.0762 164.665 60.519 164.772 61.007C164.975 61.5067 164.994 62.0623 164.826 62.5748C164.658 63.0873 164.314 63.5236 163.854 63.8062C164.389 63.8836 164.892 64.1113 165.303 64.4628C165.692 64.8055 165.97 65.256 166.102 65.7571C166.226 66.0995 166.274 66.4647 166.242 66.8273C166.21 67.1899 166.099 67.5411 165.917 67.8564C165.502 68.4552 164.876 68.8758 164.165 69.0343L158.616 70.5898Z" fill="#1A1818"/>
<path d="M160.78 81.6928C160.388 81.4621 160.065 81.1291 159.848 80.7294C159.63 80.3297 159.525 79.8783 159.543 79.4235C159.503 79.0783 159.532 78.7285 159.63 78.3948C159.727 78.0611 159.89 77.7503 160.109 77.4807C160.318 77.2295 160.577 77.0249 160.87 76.8802C161.163 76.7355 161.483 76.6539 161.81 76.6406C162.173 76.6005 162.54 76.6515 162.879 76.7889C163.217 76.9264 163.516 77.1459 163.749 77.4278C164.283 78.1362 164.578 78.9968 164.589 79.8842L164.697 81.4073L165.122 81.3796C165.663 81.3819 166.186 81.1866 166.592 80.8303C166.764 80.6171 166.889 80.3696 166.958 80.1043C167.027 79.839 167.038 79.5621 166.992 79.292C166.946 78.443 166.64 77.6287 166.115 76.9592L167.42 76.8734C167.889 77.5991 168.148 78.4406 168.169 79.3046C168.315 81.4114 167.319 82.5384 165.181 82.6857L159.876 83.0512L159.788 81.7598L160.78 81.6928ZM160.659 79.7254C160.671 80.2486 160.888 80.7461 161.263 81.1106C161.439 81.2729 161.647 81.3963 161.873 81.4724C162.1 81.5486 162.34 81.5759 162.578 81.5525L163.653 81.4801L163.554 80.0217C163.557 79.4611 163.373 78.9155 163.032 78.4706C162.902 78.3133 162.737 78.1893 162.549 78.1088C162.362 78.0284 162.158 77.9938 161.954 78.0079C161.765 78.0146 161.578 78.0613 161.408 78.1449C161.237 78.2285 161.086 78.3472 160.965 78.4931C160.709 78.8498 160.6 79.2911 160.66 79.7259L160.659 79.7254Z" fill="#1A1818"/>
<path d="M159.065 96.4715L159.202 95.173L164.601 95.7574C165.113 95.8459 165.639 95.7291 166.065 95.4325C166.244 95.2908 166.391 95.113 166.498 94.9108C166.604 94.7085 166.667 94.4862 166.682 94.2582C166.716 93.9529 166.685 93.6437 166.59 93.3514C166.495 93.0591 166.339 92.7906 166.131 92.5638C165.628 92.0243 164.935 91.7011 164.198 91.6624L159.635 91.1719L159.773 89.8882L168.124 90.7888L167.986 92.0725L166.534 91.9185C167.009 92.1975 167.388 92.6163 167.617 93.1181C167.846 93.6198 167.914 94.1799 167.814 94.7221C167.792 95.0802 167.697 95.4299 167.533 95.7493C167.37 96.0686 167.142 96.3507 166.864 96.5778C166.573 96.7971 166.241 96.9559 165.888 97.0449C165.535 97.1338 165.167 97.1511 164.807 97.0957L159.065 96.4715Z" fill="#1A1818"/>
<path d="M156.059 126.543C155.781 126.624 155.488 126.647 155.201 126.611C154.913 126.575 154.635 126.48 154.385 126.333C154.128 126.198 153.902 126.012 153.72 125.786C153.538 125.561 153.404 125.3 153.327 125.02C153.244 124.743 153.22 124.451 153.255 124.164C153.291 123.877 153.385 123.6 153.532 123.351C153.667 123.092 153.854 122.864 154.081 122.681C154.307 122.497 154.569 122.361 154.85 122.282C155.131 122.203 155.425 122.182 155.714 122.221C156.003 122.259 156.281 122.356 156.532 122.505C156.789 122.64 157.016 122.825 157.2 123.05C157.383 123.275 157.519 123.535 157.599 123.814C157.68 124.092 157.702 124.385 157.665 124.673C157.628 124.96 157.532 125.237 157.383 125.486C157.246 125.743 157.058 125.97 156.83 126.152C156.603 126.333 156.34 126.466 156.059 126.543V126.543Z" fill="#1A1818"/>
<path d="M141.419 134.264L145.221 129.503L153.943 136.472L153.105 137.516L145.328 131.304L142.36 135.017L141.419 134.264Z" fill="#1A1818"/>
<path d="M134.342 142.531C134.284 142.079 134.35 141.62 134.533 141.203C134.717 140.787 135.01 140.428 135.383 140.166C135.631 139.924 135.925 139.734 136.247 139.606C136.569 139.478 136.914 139.416 137.26 139.422C137.587 139.435 137.908 139.517 138.202 139.661C138.496 139.806 138.756 140.01 138.966 140.261C139.22 140.524 139.405 140.846 139.503 141.198C139.601 141.55 139.609 141.921 139.528 142.278C139.29 143.132 138.788 143.889 138.095 144.442L136.959 145.457L137.245 145.777C137.572 146.205 138.045 146.498 138.574 146.601C138.849 146.606 139.121 146.553 139.373 146.445C139.625 146.336 139.851 146.176 140.036 145.974C140.681 145.42 141.138 144.681 141.344 143.857L142.212 144.836C141.922 145.652 141.412 146.373 140.739 146.92C139.166 148.319 137.667 148.22 136.244 146.622L132.714 142.642L133.683 141.789L134.342 142.531ZM135.823 141.235C135.621 141.397 135.452 141.597 135.327 141.824C135.202 142.052 135.124 142.301 135.096 142.559C135.074 142.798 135.104 143.038 135.182 143.265C135.26 143.491 135.385 143.699 135.549 143.874L136.266 144.679L137.358 143.704C137.804 143.362 138.126 142.883 138.272 142.34C138.317 142.141 138.313 141.934 138.262 141.737C138.21 141.54 138.111 141.359 137.974 141.208C137.854 141.061 137.703 140.942 137.534 140.858C137.364 140.774 137.178 140.727 136.988 140.719C136.548 140.735 136.131 140.919 135.823 141.233L135.823 141.235Z" fill="#1A1818"/>
<path d="M121.697 150.148L122.81 149.462L123.577 150.702C123.494 150.157 123.588 149.6 123.846 149.113C124.103 148.626 124.51 148.234 125.007 147.995C125.303 147.793 125.638 147.653 125.991 147.586C126.344 147.518 126.707 147.524 127.057 147.602C127.405 147.7 127.73 147.866 128.013 148.091C128.296 148.316 128.531 148.595 128.705 148.911L131.732 153.833L130.619 154.517L127.769 149.878C127.532 149.428 127.129 149.089 126.645 148.933C126.419 148.88 126.185 148.876 125.957 148.919C125.729 148.963 125.512 149.053 125.322 149.185C125.046 149.338 124.81 149.551 124.63 149.81C124.45 150.068 124.332 150.364 124.284 150.675C124.203 151.381 124.381 152.093 124.783 152.68L127.206 156.617L126.09 157.302L121.697 150.148Z" fill="#1A1818"/>
<path d="M114.331 153.647L115.541 153.144L118.76 160.897L117.567 161.394L117 160.032C117.03 160.53 116.9 161.024 116.629 161.441C116.357 161.859 115.958 162.178 115.491 162.352C115.348 162.417 115.199 162.466 115.045 162.498L114.549 161.306C114.79 161.289 115.027 161.233 115.251 161.14C115.519 161.026 115.754 160.847 115.935 160.618C116.116 160.389 116.236 160.119 116.285 159.831C116.434 159.178 116.369 158.494 116.098 157.881L114.331 153.647Z" fill="#1A1818"/>
<path d="M100.321 158.479C100.955 157.95 101.709 157.584 102.517 157.413C103.06 157.255 103.629 157.209 104.19 157.279C104.751 157.348 105.292 157.531 105.78 157.816C106.26 158.119 106.673 158.517 106.994 158.985C107.314 159.453 107.536 159.981 107.645 160.538C107.982 161.637 107.89 162.822 107.389 163.856C107.154 164.303 106.823 164.692 106.42 164.997C106.018 165.302 105.553 165.516 105.06 165.622C104.612 165.754 104.142 165.787 103.68 165.72C103.219 165.654 102.777 165.488 102.386 165.235C101.552 164.613 100.986 163.697 100.803 162.673C100.725 162.356 100.674 162.033 100.651 161.707L106.218 160.341C105.992 159.639 105.499 159.055 104.846 158.714C104.159 158.407 103.384 158.355 102.662 158.57C101.884 158.72 101.17 159.103 100.614 159.668L100.321 158.479ZM104.79 164.513C105.082 164.446 105.357 164.318 105.597 164.139C105.837 163.96 106.038 163.733 106.186 163.472C106.522 162.838 106.627 162.107 106.482 161.404L102.105 162.475L102.181 162.796C102.296 163.391 102.632 163.922 103.122 164.279C103.367 164.437 103.642 164.54 103.93 164.58C104.218 164.621 104.512 164.598 104.79 164.513V164.513Z" fill="#1A1818"/>
<path d="M86.7611 159.541L88.0662 159.461L88.4071 164.882C88.4034 165.399 88.6053 165.896 88.9683 166.265C89.1385 166.418 89.3389 166.533 89.5565 166.603C89.7742 166.674 90.0042 166.698 90.2317 166.674C90.5395 166.656 90.84 166.573 91.113 166.429C91.386 166.286 91.6254 166.086 91.8151 165.843C92.2617 165.256 92.4605 164.517 92.3691 163.784L92.0775 159.204L93.3687 159.123L93.8998 167.508L92.609 167.586L92.5151 166.131C92.3225 166.648 91.9747 167.092 91.5194 167.404C91.0641 167.715 90.5237 167.877 89.9722 167.869C89.6148 167.909 89.253 167.875 88.9093 167.769C88.5657 167.663 88.2476 167.487 87.9748 167.252C87.7107 167.002 87.4992 166.701 87.3529 166.367C87.2066 166.034 87.1283 165.674 87.1227 165.31L86.7611 159.541Z" fill="#1A1818"/>
<path d="M74.1419 158.97C74.7714 158.703 75.4621 158.613 76.1391 158.71C76.7238 158.749 77.2933 158.914 77.809 159.192C78.3246 159.471 78.7744 159.857 79.1278 160.324C79.8065 161.244 80.1009 162.391 79.9485 163.524C79.8399 164.657 79.3027 165.706 78.4467 166.456C77.995 166.841 77.4648 167.124 76.8929 167.284C76.321 167.444 75.7211 167.477 75.135 167.382C74.4676 167.319 73.8272 167.087 73.2743 166.709L73.4154 165.474C73.902 165.879 74.5008 166.126 75.1317 166.182C75.5509 166.248 75.9793 166.223 76.3881 166.109C76.7968 165.995 77.1763 165.795 77.5009 165.522C78.1363 164.971 78.5304 164.193 78.5986 163.355C78.7098 162.532 78.5078 161.699 78.0328 161.019C77.7743 160.678 77.4446 160.399 77.0668 160.199C76.6889 159.999 76.2721 159.885 75.8453 159.863C75.2115 159.791 74.5709 159.911 74.0062 160.208L74.1419 158.97Z" fill="#1A1818"/>
<path d="M61.8269 156.108C62.6387 155.967 63.4723 156.027 64.2556 156.282C64.8049 156.416 65.3211 156.66 65.7727 157C66.2243 157.34 66.6018 157.769 66.8821 158.26C67.1463 158.762 67.3056 159.313 67.3502 159.879C67.3948 160.446 67.3238 161.015 67.1416 161.553C66.8827 162.674 66.2083 163.655 65.2544 164.298C64.8275 164.568 64.3465 164.74 63.8455 164.803C63.3446 164.865 62.836 164.817 62.3559 164.66C61.9026 164.553 61.4783 164.347 61.1121 164.059C60.746 163.771 60.4468 163.407 60.2354 162.992C59.8229 162.037 59.7914 160.961 60.1474 159.984C60.2341 159.668 60.3511 159.362 60.4968 159.069L65.9999 160.67C66.1561 159.949 66.0212 159.197 65.6246 158.576C65.1854 157.965 64.5418 157.533 63.8108 157.357C63.0599 157.099 62.2487 157.074 61.4833 157.285L61.8269 156.108ZM62.6731 163.564C62.96 163.652 63.2623 163.68 63.5604 163.644C63.8586 163.609 64.146 163.511 64.4042 163.358C65.0122 162.977 65.4682 162.396 65.6934 161.715L61.3691 160.459L61.2786 160.778C61.0765 161.351 61.1027 161.98 61.3516 162.534C61.484 162.791 61.6708 163.016 61.8991 163.194C62.1274 163.372 62.3917 163.498 62.6735 163.563L62.6731 163.564Z" fill="#1A1818"/>
<path d="M46.4714 148.457L47.5856 149.203L41.3662 158.473L39.9643 157.53L40.2611 152.067L40.6026 146.474C40.0423 147.385 39.1654 148.731 37.9718 150.509L35.3436 154.43L34.2298 153.683L40.4488 144.414L41.8507 145.357L41.5742 150.793C41.5182 151.885 41.4611 152.901 41.403 153.842C41.3448 154.782 41.301 155.453 41.2714 155.856L41.2202 156.439C41.8143 155.455 42.6926 154.097 43.8549 152.365L46.4714 148.457Z" fill="#1A1818"/>
<path d="M30.5778 135.948C31.3583 136.215 32.0617 136.668 32.6266 137.269C33.0434 137.651 33.378 138.114 33.6102 138.629C33.8423 139.145 33.9671 139.702 33.9769 140.267C33.9674 140.835 33.8423 141.394 33.6092 141.912C33.3761 142.429 33.0399 142.893 32.6212 143.276C31.8559 144.134 30.7949 144.671 29.6505 144.78C29.1463 144.811 28.6415 144.731 28.1717 144.545C27.7019 144.36 27.2785 144.073 26.9315 143.706C26.5866 143.393 26.3137 143.009 26.1314 142.58C25.949 142.151 25.8617 141.688 25.8754 141.222C25.9736 140.187 26.4624 139.229 27.2423 138.542C27.4723 138.308 27.723 138.096 27.9913 137.908L32.046 141.955C32.5262 141.398 32.7681 140.674 32.7193 139.94C32.6266 139.193 32.2701 138.503 31.7141 137.995C31.1807 137.409 30.4819 136.997 29.7099 136.816L30.5778 135.948ZM27.7353 142.898C27.9454 143.113 28.1976 143.281 28.4761 143.394C28.7546 143.506 29.0533 143.559 29.3534 143.55C30.0705 143.508 30.7504 143.217 31.2762 142.728L28.0862 139.545L27.8536 139.777C27.4034 140.185 27.1248 140.748 27.074 141.354C27.0663 141.644 27.1215 141.932 27.2357 142.198C27.3499 142.465 27.5205 142.703 27.7357 142.897L27.7353 142.898Z" fill="#1A1818"/>
<path d="M24.4558 127.58L25.3403 128.923L19.7369 135.688L18.9714 134.524L20.8537 132.321C21.5082 131.548 22.085 130.883 22.5842 130.325C23.0849 129.77 23.4215 129.4 23.5929 129.22L23.8394 128.959C23.1558 129.21 21.7191 129.669 19.5294 130.336L16.7847 131.187L16.0228 130.024L17.8906 127.829L20.8666 124.392C20.2362 124.624 18.7843 125.068 16.511 125.723L13.7326 126.533L12.9999 125.409L21.473 123.023L22.3557 124.367L20.4913 126.539L17.6229 129.806C18.3051 129.558 19.6788 129.106 21.7439 128.453L24.4558 127.58Z" fill="#1A1818"/>
<path d="M13.6227 104.81L14.0656 106.04L8.94786 107.867C7.75461 108.295 7.33713 109.013 7.69543 110.021C7.79459 110.278 7.94997 110.511 8.15026 110.701C8.35056 110.891 8.59074 111.034 8.85331 111.12C9.54741 111.351 10.3021 111.319 10.9741 111.03L15.2939 109.485L15.7351 110.718L10.6166 112.549C9.42359 112.976 9.00667 113.693 9.36582 114.699C9.46532 114.957 9.62118 115.19 9.82204 115.38C10.0229 115.57 10.2637 115.713 10.5268 115.799C11.2216 116.031 11.9776 116 12.6508 115.711L16.9679 114.165L17.4016 115.383L9.49607 118.205L9.05797 116.989L10.3375 116.533C9.83934 116.504 9.3623 116.322 8.97151 116.011C8.58071 115.701 8.2952 115.278 8.15392 114.799C7.91664 114.314 7.85863 113.761 7.99018 113.238C8.12173 112.715 8.43433 112.255 8.87258 111.94C8.33417 111.904 7.81772 111.713 7.3861 111.389C6.97269 111.074 6.66237 110.643 6.49465 110.151C6.34666 109.819 6.27311 109.458 6.27916 109.094C6.28521 108.73 6.37071 108.371 6.52968 108.044C6.9028 107.417 7.49728 106.954 8.19558 106.745L13.6227 104.81Z" fill="#1A1818"/>
<path d="M10.6858 93.9132C11.0942 94.1149 11.4398 94.4243 11.6852 94.8081C11.9305 95.1918 12.0664 95.6353 12.0781 96.0906C12.1416 96.4311 12.1368 96.7809 12.0642 97.1195C11.9915 97.4582 11.8523 97.7791 11.6546 98.0635C11.4636 98.3292 11.219 98.5519 10.9367 98.7173C10.6543 98.8826 10.3404 98.987 10.0153 99.0236C9.65589 99.0897 9.28572 99.0648 8.93838 98.9514C8.59104 98.838 8.27754 98.6396 8.02637 98.3743C7.44364 97.7055 7.08959 96.8682 7.01575 95.9842L6.80145 94.4775L6.37622 94.5352C5.83795 94.5701 5.33142 94.8021 4.95346 95.187C4.79742 95.4125 4.69102 95.6687 4.64132 95.9384C4.59162 96.2081 4.59975 96.4854 4.66516 96.7517C4.77119 97.595 5.13494 98.385 5.70673 99.0139L4.40526 99.1926C3.88557 98.5001 3.56696 97.6776 3.48448 96.8158C3.1903 94.7271 4.10388 93.533 6.22523 93.2334L11.489 92.4937L11.6658 93.771L10.6858 93.9132ZM10.9454 95.8648C10.8985 95.3436 10.6467 94.8623 10.2454 94.5266C10.0586 94.3767 9.84208 94.2684 9.61019 94.2088C9.3783 94.1492 9.13637 94.1396 8.9005 94.1808L7.83717 94.3315L8.04125 95.775C8.07899 96.3349 8.29959 96.8669 8.66913 97.2892C8.8095 97.4364 8.98313 97.5476 9.17544 97.6137C9.36775 97.6798 9.57311 97.6987 9.77425 97.6689C9.96278 97.6505 10.1452 97.592 10.3091 97.4971C10.4731 97.4022 10.6148 97.2733 10.7247 97.119C10.9572 96.745 11.0363 96.2957 10.9454 95.8648V95.8648Z" fill="#1A1818"/>
<path d="M11.3507 79.0617L11.3005 80.369L5.87468 80.1737C5.36109 80.1179 4.84637 80.2684 4.44376 80.5921C4.27445 80.7461 4.1394 80.9339 4.0474 81.1435C3.95539 81.353 3.90848 81.5795 3.90971 81.8084C3.89696 82.1153 3.94947 82.4215 4.06376 82.7066C4.17805 82.9918 4.35153 83.2494 4.57274 83.4626C5.11311 83.9661 5.82849 84.2391 6.56693 84.2237L11.1572 84.3913L11.1078 85.6802L2.71835 85.3784L2.76896 84.0867L4.22352 84.1405C3.72913 83.8956 3.32213 83.5044 3.05781 83.0201C2.79349 82.5358 2.68467 81.9818 2.74612 81.4335C2.74212 81.0736 2.81265 80.7168 2.95328 80.3855C3.0939 80.0542 3.30158 79.7556 3.56324 79.5085C3.83797 79.2705 4.15757 79.09 4.50317 78.9775C4.84878 78.8651 5.2134 78.8229 5.57555 78.8536L11.3507 79.0617Z" fill="#1A1818"/>
<path d="M8.45262 57.7127C8.71151 57.5798 8.99497 57.5016 9.28538 57.4829C9.57579 57.4641 9.86695 57.5054 10.1408 57.604C10.4175 57.6906 10.6738 57.8324 10.8943 58.0207C11.1148 58.2091 11.2949 58.4401 11.4238 58.6999C11.5562 58.957 11.6343 59.2386 11.6531 59.5272C11.6719 59.8158 11.6311 60.1051 11.5332 60.3773C11.447 60.6554 11.3054 60.9131 11.1168 61.1349C10.9282 61.3567 10.6966 61.538 10.436 61.6678C10.1754 61.7976 9.89123 61.8733 9.60058 61.8901C9.30994 61.907 9.01888 61.8648 8.74501 61.7661C8.46667 61.6808 8.20837 61.5404 7.98556 61.3531C7.76275 61.1658 7.58 60.9354 7.44824 60.6759C7.3174 60.417 7.24119 60.1341 7.22435 59.8445C7.20751 59.555 7.2504 59.2651 7.35036 58.9928C7.43687 58.7155 7.57931 58.4588 7.76889 58.2386C7.95847 58.0184 8.19117 57.8395 8.45262 57.7127V57.7127Z" fill="#1A1818"/>
</svg>
